Brian_90_01									
version=1									
nRows=96									
nColumns=10									
inDegrees=yes									
endheader									
time	ground_force_vx	ground_force_vy	ground_force_vz	ground_force_px	ground_force_py	ground_force_pz	ground_torque_x	ground_torque_y	ground_torque_z
0	-5.986459	66.456047	-2.372061	-0.241324	0	-0.600006	-0.000001	-0.671043	0
0.001	-5.94065	66.644531	-2.640229	-0.239626	0	-0.601786	0	-0.642807	-0.000001
0.002	-5.74189	65.587509	-2.736612	-0.239508	0	-0.601366	0.000003	-0.65345	-0.000001
0.003	-6.001302	65.737854	-2.399819	-0.241572	0	-0.600345	0.000004	-0.643923	-0.000001
0.004	-5.979354	65.396141	-2.010088	-0.239681	0	-0.600416	0.000004	-0.578655	-0.000001
0.005	-6.002448	67.056953	-2.450848	-0.237841	0	-0.601852	-0.000001	-0.619883	-0.000001
0.006	-6.160678	67.189575	-2.440729	-0.239029	0	-0.60172	0.000002	-0.656362	0
0.007	-6.269643	65.680328	-2.030911	-0.239931	0	-0.599825	-0.000001	-0.662035	-0.000001
0.008	-6.098993	66.264755	-2.31671	-0.240546	0	-0.601907	0	-0.728421	-0.000001
0.009	-5.963517	65.328506	-2.462589	-0.24141	0	-0.603353	-0.000001	-0.684213	-0.000001
0.01	-6.001458	65.903954	-2.259918	-0.239535	0	-0.602428	0.000003	-0.639027	0
0.011	-6.027271	66.28125	-2.454621	-0.23878	0	-0.601228	0	-0.687366	-0.000001
0.012	-6.164393	66.548241	-2.61876	-0.241063	0	-0.602916	0.000003	-0.675974	-0.000001
0.013	-6.009965	65.85527	-2.575025	-0.238663	0	-0.605049	-0.000001	-0.672521	-0.000001
0.014	-5.937778	66.359337	-2.552029	-0.23826	0	-0.601673	0.000001	-0.674104	-0.000001
0.015	-5.805034	66.644531	-2.354428	-0.239235	0	-0.600645	0.000006	-0.652096	-0.000001
0.016	-5.961145	66.119781	-2.615793	-0.241853	0	-0.603389	0.000004	-0.633629	-0.000001
0.017	-5.831086	66.190552	-2.403739	-0.240877	0	-0.602198	-0.000001	-0.652629	-0.000001
0.018	-5.891773	65.497055	-2.414998	-0.241521	0	-0.600521	0.000002	-0.648165	0
0.019	-6.064584	65.471649	-1.992633	-0.239957	0	-0.602853	0.000003	-0.645068	-0.000001
0.02	-6.049473	66.356903	-2.157758	-0.240319	0	-0.602067	0.000001	-0.657443	0
0.021	-6.024368	65.59124	-2.144791	-0.240117	0	-0.60037	0.000002	-0.649263	-0.000001
0.022	-6.22507	65.733444	-2.36117	-0.240518	0	-0.603074	0.000005	-0.635848	-0.000001
0.023	-6.09576	65.662651	-2.1263	-0.239585	0	-0.60205	0.000002	-0.67259	-0.000001
0.024	-6.091894	66.35556	-2.27142	-0.239564	0	-0.601916	0.000001	-0.652404	-0.000001
0.025	-6.381722	65.592628	-2.365982	-0.241232	0	-0.60216	0.000001	-0.670996	-0.000001
0.026	-6.145429	65.99572	-2.102685	-0.240365	0	-0.603443	0.000004	-0.67416	-0.000001
0.027	-6.089434	66.547974	-2.137969	-0.238969	0	-0.604459	-0.000002	-0.683969	-0.000001
0.028	-6.108772	65.853447	-1.852096	-0.238279	0	-0.60207	0.000004	-0.679531	0
0.029	-5.780388	65.828018	-1.866809	-0.238193	0	-0.60117	-0.000001	-0.694133	-0.000001
0.03	-5.926846	66.448097	-2.180602	-0.238102	0	-0.598976	0.000003	-0.655265	-0.000001
0.031	-6.222384	66.118462	-2.143748	-0.240406	0	-0.600474	0.000001	-0.679674	-0.000001
0.032	-6.23045	66.447792	-2.359287	-0.238618	0	-0.601974	0.000001	-0.666307	-0.000001
0.033	-6.073228	66.118767	-2.26021	-0.239	0	-0.602564	0.000001	-0.650292	0
0.034	-6.219563	66.185204	-1.98644	-0.239878	0	-0.602588	0.000003	-0.668998	-0.000001
0.035	-6.615286	66.799942	-1.640455	-0.238007	0	-0.60431	0.000001	-0.677134	-0.000001
0.036	-6.214607	65.428017	-2.00999	-0.237735	0	-0.602353	-0.000001	-0.660466	-0.000001
0.037	-6.285216	64.847656	-2.050625	-0.240461	0	-0.602759	0.000002	-0.68599	-0.000001
0.038	-6.516356	65.630333	-2.264118	-0.239869	0	-0.602466	0.000002	-0.695259	-0.000001
0.039	-6.758862	66.963234	-1.962647	-0.239264	0	-0.600526	0.000002	-0.676565	-0.000001
0.04	-6.243797	66.051666	-2.085433	-0.239575	0	-0.600488	0.000002	-0.609603	0
0.041	-6.219798	66.348389	-2.315472	-0.237073	0	-0.60368	0.000002	-0.592714	-0.000001
0.042	-6.097643	65.858879	-2.234981	-0.23871	0	-0.603753	0.000003	-0.604122	0
0.043	-5.830168	65.569244	-2.256782	-0.240753	0	-0.603396	0.000002	-0.612817	0
0.044	-6.145124	65.564629	-2.011952	-0.239826	0	-0.601815	0.000003	-0.597744	-0.000001
0.045	-6.033314	66.087936	-2.310228	-0.2385	0	-0.60097	0.000003	-0.659254	-0.000001
0.046	-6.328063	64.979065	-2.256871	-0.240306	0	-0.598796	0	-0.751095	-0.000001
0.047	-6.340447	65.010567	-1.917727	-0.239956	0	-0.602735	0.000004	-0.664609	-0.000001
0.048	-6.423164	65.726318	-2.147765	-0.238542	0	-0.60324	0	-0.627109	0
0.049	-6.015422	65.40274	-2.210881	-0.238556	0	-0.602229	0.000002	-0.604783	-0.000001
0.05	-6.305743	64.946121	-2.447567	-0.240703	0	-0.601715	-0.000001	-0.679384	0
0.051	-6.15071	65.11132	-2.351504	-0.240716	0	-0.602439	0.000001	-0.669557	-0.000001
0.052	-6.419732	65.729607	-2.405829	-0.240389	0	-0.604293	0.000001	-0.620548	-0.000001
0.053	-6.365381	65.922943	-2.058686	-0.23831	0	-0.603664	0.000005	-0.650874	-0.000002
0.054	-6.159426	66.443428	-2.042508	-0.236802	0	-0.601368	0.000001	-0.668525	-0.000002
0.055	-6.25228	66.122063	-2.557797	-0.241516	0	-0.602862	0.000004	-0.630086	-0.000001
0.056	-6.49323	64.622673	-2.266435	-0.242355	0	-0.602962	0.000005	-0.627856	0
0.057	-6.105426	65.431625	-1.89793	-0.240906	0	-0.603498	-0.000002	-0.617154	0
0.058	-6.452328	66.441048	-1.949269	-0.238247	0	-0.601987	0	-0.608792	-0.000001
0.059	-6.454148	66.639549	-1.867647	-0.238424	0	-0.603117	0.000003	-0.593358	0
0.06	-6.315622	67.158417	-2.016788	-0.237366	0	-0.602966	0.000002	-0.610523	-0.000001
0.061	-6.361621	66.317368	-2.420106	-0.23814	0	-0.599517	0.000002	-0.695219	-0.000001
0.062	-6.252341	64.886909	-2.151365	-0.239124	0	-0.602853	0.000003	-0.642312	0
0.063	-6.273056	65.269592	-2.331706	-0.241279	0	-0.599004	0.000002	-0.730569	-0.000001
0.064	-6.428132	67.377922	-2.520854	-0.238043	0	-0.597548	0.000001	-0.655962	0
0.065	-6.21353	67.813217	-2.154244	-0.237681	0	-0.599396	0.000002	-0.628398	0
0.066	-5.985342	65.647385	-2.203527	-0.240258	0	-0.603411	0	-0.614391	-0.000001
0.067	-6.06676	67.441841	-2.279487	-0.239028	0	-0.603284	0.000006	-0.675294	-0.000001
0.068	-6.246543	66.621422	-2.40697	-0.238502	0	-0.604727	0.000002	-0.601341	-0.000001
0.069	-6.160252	67.477577	-1.997712	-0.236597	0	-0.602839	-0.000001	-0.585298	0
0.07	-6.111259	67.039116	-1.953389	-0.23824	0	-0.599093	0.000002	-0.635193	-0.000001
0.071	-5.789881	67.159431	-2.335806	-0.237194	0	-0.599627	0.000001	-0.647197	0
0.072	-6.185236	67.100052	-2.262346	-0.238779	0	-0.602021	0.000003	-0.687371	-0.000001
0.073	-6.648689	67	-2.31326	-0.240985	0	-0.602329	0.000002	-0.659326	-0.000001
0.074	-6.4872	66.484474	-2.298827	-0.239698	0	-0.603548	0.000001	-0.667544	-0.000002
0.075	-6.50818	67.31308	-1.747062	-0.237792	0	-0.601888	0.000003	-0.669742	0
0.076	-6.173652	67.972771	-2.07379	-0.237721	0	-0.600886	0.000002	-0.686919	-0.000001
0.077	-6.479302	66.264473	-2.077344	-0.240992	0	-0.601155	0.000002	-0.640536	0
0.078	-6.397645	66.341888	-2.264372	-0.240489	0	-0.60334	0	-0.611005	0
0.079	-6.424713	66.638908	-2.10364	-0.240283	0	-0.60209	0.000002	-0.652658	-0.000002
0.08	-6.275524	66.639534	-1.741033	-0.239581	0	-0.603022	0.000001	-0.64752	-0.000001
0.081	-6.268521	67.672318	-1.967726	-0.239494	0	-0.601082	0.000004	-0.680872	-0.000001
0.082	-6.42166	66.784286	-1.830851	-0.240354	0	-0.603182	-0.000002	-0.656104	-0.000001
0.083	-6.60345	68.340591	-2.053998	-0.238522	0	-0.602719	0	-0.683549	-0.000001
0.084	-6.398284	67.858185	-2.250383	-0.239699	0	-0.600716	0.000001	-0.677769	-0.000001
0.085	-6.231713	66.583557	-2.406288	-0.238585	0	-0.602097	0.000002	-0.683639	-0.000001
0.086	-6.075692	66.025925	-2.198479	-0.239414	0	-0.605553	0.000001	-0.65381	-0.000001
0.087	-6.215394	65.925781	-1.833766	-0.240549	0	-0.604092	0.000003	-0.606529	0
0.088	-6.164624	66.183762	-2.058426	-0.240139	0	-0.603287	-0.000001	-0.630135	-0.000001
0.089	-6.306381	66.798149	-1.923697	-0.239746	0	-0.604144	0.000005	-0.655009	-0.000001
0.09	-6.258111	68.028488	-2.214561	-0.239818	0	-0.600501	0.000002	-0.69926	0
0.091	-6.274084	67.663162	-2.498167	-0.239189	0	-0.600864	0.000003	-0.69268	0
0.092	-6.231468	68.12957	-2.224873	-0.238859	0	-0.602358	0.000001	-0.693257	-0.000001
0.093	-6.140718	67.406036	-2.097221	-0.240076	0	-0.601718	0.000004	-0.706595	-0.000001
0.094	-6.498771	67.254715	-1.766479	-0.240298	0	-0.603498	0.000004	-0.696033	0
0.095	-6.591104	67.355469	-2.222015	-0.239019	0	-0.602828	0.000001	-0.67992	-0.000001
